<svg xmlns="http://www.w3.org/2000/svg" data-name="Layer 1" viewBox="0 0 128 128"><path fill="#e1ebf4" d="M112,34V58a5.98636,5.98636,0,0,1-.92,3.18,68.20594,68.20594,0,0,1-1.69,11.52l-3.47,14.68A5.95612,5.95612,0,0,1,100.08,92h-.16a5.974,5.974,0,0,1-5.85-4.63L90.61,72.71a68.47148,68.47148,0,0,1-1.69-11.53A5.98636,5.98636,0,0,1,88,58V34H2.75v77.25H125V34ZM19.54,108A18.893,18.893,0,1,1,28,110,18.98342,18.98342,0,0,1,19.54,108Z"/><path fill="#ffdb80" d="M96.08,92.33,85.5,103.75H42.05c.19-.21.38-.43.56-.65.07-.09.14-.17.21-.26.17-.21.33-.42.49-.64.05-.06.1-.13.15-.2A19.25316,19.25316,0,0,0,47,91,19.0088,19.0088,0,0,0,28.57,72.03l-.32-56.86s-1-5.59,5.58-5.59H88.31a3.15558,3.15558,0,0,0-.09.42,1.05124,1.05124,0,0,0-.04.17c-.04.2-.07.4-.1.6s-.05.41-.06.61c-.01.21-.02.41-.02.62V58a5.98636,5.98636,0,0,0,.92,3.18,68.47148,68.47148,0,0,0,1.69,11.53l3.46,14.66a5.97135,5.97135,0,0,0,1.95,3.18Z"/><path fill="#2d4356" d="M46,59H40a3.99887,3.99887,0,0,0-4,4v6a3.99891,3.99891,0,0,0,4,4h6a3.99891,3.99891,0,0,0,4-4V63A3.99887,3.99887,0,0,0,46,59Zm0,10H40V63h6Z"/><rect width="6" height="6" x="40" y="63" fill="#81d9e3"/><path fill="#2d4356" d="M46,23H40a3.99887,3.99887,0,0,0-4,4v6a3.99891,3.99891,0,0,0,4,4h6a3.99891,3.99891,0,0,0,4-4V27A3.99887,3.99887,0,0,0,46,23Zm0,10H40V27h6Z"/><rect width="6" height="6" x="40" y="27" fill="#81d9e3"/><path fill="#2d4356" d="M46,41H40a3.99887,3.99887,0,0,0-4,4v6a3.99891,3.99891,0,0,0,4,4h6a3.99891,3.99891,0,0,0,4-4V45A3.99887,3.99887,0,0,0,46,41Zm0,10H40V45h6Z"/><rect width="6" height="6" x="40" y="45" fill="#81d9e3"/><path fill="#2d4356" d="M56 28H88V24H56a2 2 0 000 4zM56 36H88V32H56a2 2 0 000 4zM56 46H88V42H56a2 2 0 000 4zM56 54H88V50H56a2 2 0 000 4zM56 60a2 2 0 000 4H89.138q-.14969-1.4328-.24249-2.87451A5.962 5.962 0 0188.36407 60zM54 70a2.0001 2.0001 0 002 2H90a1.99362 1.99362 0 00.44647-.05414q-.43781-1.95273-.761-3.94586H56A2.0001 2.0001 0 0054 70zM102 6H98a6.00476 6.00476 0 00-6 6V58a1.97531 1.97531 0 00.84 1.62A65.7848 65.7848 0 0094.5 71.79l3.47 14.67A2.00179 2.00179 0 0099.92 88h.16a2.00179 2.00179 0 001.95-1.54l3.47-14.67a65.78479 65.78479 0 001.66-12.17A1.97531 1.97531 0 00108 58V12A6.00476 6.00476 0 00102 6zm-.4 64.87L100 77.66l-1.6-6.79A61.33447 61.33447 0 0196.88 60h6.24A61.33447 61.33447 0 01101.6 70.87zM104 56H96V20h8zm0-40H96V12a2.00587 2.00587 0 012-2h4a2.00587 2.00587 0 012 2z"/><path fill="#ffdb80" d="M104,12v4H96V12a2.00587,2.00587,0,0,1,2-2h4A2.00587,2.00587,0,0,1,104,12Z"/><rect width="8" height="36" x="96" y="20" fill="#81d9e3"/><path fill="#ffdb80" d="M103.12,60a61.33447,61.33447,0,0,1-1.52,10.87L100,77.66l-1.6-6.79A61.33447,61.33447,0,0,1,96.88,60Z"/><path fill="#81d9e3" d="M95.19,91,87,99.23V92a1.003,1.003,0,0,1,1-1Z"/><path fill="#2d4356" d="M28,76A15,15,0,1,0,43,91,15.01828,15.01828,0,0,0,28,76Zm0,26A11,11,0,1,1,39,91,11.00657,11.00657,0,0,1,28,102Z"/><circle cx="28" cy="91" r="11" fill="#81d9e3"/><path fill="#2d4356" d="M24.66113 95.32617a2.00059 2.00059 0 001.40918.67188c.0293.00146.05859.002.08789.002a2.004 2.004 0 001.375-.54736l6.3418-6a2.00019 2.00019 0 10-2.75-2.90527L26.28516 91.127l-1.28809-1.45312a2 2 0 10-2.99414 2.65234zM10 45h8a2 2 0 000-4H10a2 2 0 000 4zM10 53h4a2 2 0 000-4H10a2 2 0 000 4zM110 106h8a2 2 0 000-4h-8a2 2 0 000 4zM118 98a2 2 0 000-4h-4a2 2 0 000 4z"/><path fill="#2d4356" d="M122,32H112v4h10a2.00229,2.00229,0,0,1,2,2v70a2.00229,2.00229,0,0,1-2,2H6a2.00229,2.00229,0,0,1-2-2V38a2.00229,2.00229,0,0,1,2-2H26V72.10748a18.66135,18.66135,0,0,1,4,0V13.94238A1.97352,1.97352,0,0,1,31.999,12H88a9.93437,9.93437,0,0,1,.84082-4H31.999A5.97769,5.97769,0,0,0,26,13.94238V32H6a6.00656,6.00656,0,0,0-6,6v70a6.00656,6.00656,0,0,0,6,6H62v4H44a2,2,0,0,0,0,4H84a2,2,0,0,0,0-4H66v-4h56a6.00656,6.00656,0,0,0,6-6V38A6.00656,6.00656,0,0,0,122,32Z"/><path fill="#ad9359" d="M103.12,60a61.33368,61.33368,0,0,1-1.52,10.87L100,77.66l-1.6-6.79A61.33368,61.33368,0,0,1,96.88,60h.14a59.34975,59.34975,0,0,0,1.38,8.87l1.6,6.79,1.6-6.79A59.34976,59.34976,0,0,0,102.98,60Z" opacity=".45"/><path fill="#fff" d="M124 38v2a2.00591 2.00591 0 00-2-2H112V36h10A2.00591 2.00591 0 01124 38zM26 36v2H6a2.00591 2.00591 0 00-2 2V38a2.00591 2.00591 0 012-2z" opacity=".5"/><path fill="#f9edd2" d="M32 12H88v2H32a1.97454 1.97454 0 00-2 1.94v-2A1.97454 1.97454 0 0132 12zM88.22 10a1.05124 1.05124 0 00-.04.17c.01-.06.02-.11.03-.17z" opacity=".5"/><rect width="6" height="2" x="40" y="67" fill="#0f423c" opacity=".3"/><rect width="6" height="2" x="40" y="31" fill="#0f423c" opacity=".3"/><rect width="6" height="2" x="40" y="49" fill="#0f423c" opacity=".3"/><rect width="8" height="2" x="96" y="54" fill="#0f423c" opacity=".3"/><rect width="8" height="2" x="96" y="20" fill="#e8fbfc" opacity=".4"/><path fill="#f9edd2" d="M104,12v2a2.00591,2.00591,0,0,0-2-2H98a2.00591,2.00591,0,0,0-2,2V12a2.00591,2.00591,0,0,1,2-2h4A2.00591,2.00591,0,0,1,104,12Z" opacity=".5"/><path fill="#e8fbfc" d="M94.9,92.29,93.2,93H88a1.003,1.003,0,0,0-1,1V92a1.003,1.003,0,0,1,1-1h7.72C95.77,91.1,94.83,92.2,94.9,92.29Z" opacity=".4"/><path fill="#ad9359" d="M83,100v2H43.46a18.55683,18.55683,0,0,0,1.24-2Z" opacity=".45"/><path fill="#e8fbfc" d="M39,91c0,.34-.02.67-.05,1a10.99514,10.99514,0,0,0-21.9,0c-.03-.33-.05-.66-.05-1a11,11,0,0,1,22,0Z" opacity=".4"/><path fill="#0f423c" d="M39,91a11,11,0,0,1-22,0c0-.34.02-.67.05-1a10.99514,10.99514,0,0,0,21.9,0C38.98,90.33,39,90.66,39,91Z" opacity=".3"/><path fill="#9fa5aa" d="M19.54 108A18.79528 18.79528 0 0028 110H6a2.00591 2.00591 0 01-2-2v-2a2.00591 2.00591 0 002 2zM124 106v2a2.00591 2.00591 0 01-2 2H28a18.79528 18.79528 0 008.46-2H122A2.00591 2.00591 0 00124 106z" opacity=".5"/><path fill="#2d4356" d="M94.08,87.38,93.99,87H88a5.00181,5.00181,0,0,0-5,5v10H43.46a19.16494,19.16494,0,0,1-3.84,4H85.08a1.966,1.966,0,0,0,1.41-.59L99.84,91.99A5.961,5.961,0,0,1,94.08,87.38ZM87,99.23V92a1.003,1.003,0,0,1,1-1h7.19Z"/></svg>